<?xml version="1.0" standalone="no"?>
<!DOCTYPE svg PUBLIC "-//W3C//DTD SVG 20010904//EN"
 "http://www.w3.org/TR/2001/REC-SVG-20010904/DTD/svg10.dtd">
<svg version="1.0" xmlns="http://www.w3.org/2000/svg"
 width="3507.000000pt" height="2481.000000pt" viewBox="0 0 3507.000000 2481.000000"
 preserveAspectRatio="xMidYMid meet">
<metadata>
Created by potrace 1.16, written by Peter Selinger 2001-2019
</metadata>
<g transform="translate(0.000000,2481.000000) scale(0.100000,-0.100000)"
fill="#000000" stroke="none">
<path d="M0 12405 l0 -12405 12835 0 12835 0 0 12405 0 12405 -12835 0 -12835
0 0 -12405z m18667 -5317 c11 -10 24 -18 30 -18 20 0 63 -42 99 -95 l35 -54
-3 -148 c-3 -143 -4 -149 -30 -187 -42 -59 -77 -87 -143 -114 -51 -21 -76 -25
-170 -25 -96 -1 -119 3 -180 26 -89 34 -128 74 -160 161 -48 131 -26 303 49
385 17 18 58 47 91 63 59 29 62 29 211 26 128 -3 155 -6 171 -20z m-17558 -31
c7 -10 11 -253 13 -825 3 -848 5 -876 44 -801 28 55 118 170 176 224 69 65
204 154 258 170 14 4 43 15 65 25 39 18 92 28 276 52 74 9 105 8 240 -11 93
-14 169 -30 192 -42 21 -10 44 -19 51 -19 17 0 115 -52 183 -96 57 -38 180
-156 228 -219 34 -44 65 -93 93 -145 10 -19 23 -44 30 -55 22 -40 72 -164 72
-182 0 -10 9 -38 20 -62 12 -25 25 -76 31 -115 5 -38 17 -97 27 -131 15 -52
17 -109 17 -420 0 -314 -2 -367 -17 -415 -10 -30 -22 -89 -28 -129 -6 -41 -17
-89 -26 -105 -8 -17 -20 -51 -25 -76 -16 -73 -84 -212 -157 -325 -52 -79 -196
-228 -263 -271 -57 -38 -190 -104 -207 -104 -7 0 -32 -9 -55 -19 -116 -52
-556 -52 -659 0 -21 11 -43 19 -50 19 -19 0 -145 68 -212 113 -91 63 -215 206
-268 311 l-15 29 -12 -33 c-7 -20 -11 -104 -11 -215 0 -147 -3 -185 -14 -195
-22 -17 -407 -10 -429 9 -16 12 -17 167 -17 2026 0 1598 3 2015 13 2023 21 17
47 20 238 21 144 1 189 -2 198 -12z m3350 0 c8 -10 12 -367 13 -1270 2 -690 6
-1258 10 -1262 9 -9 50 19 107 74 58 56 354 336 391 371 40 37 103 94 225 205
61 55 119 108 131 120 11 11 67 63 124 115 58 52 118 109 136 125 17 17 71 66
119 110 49 44 115 104 147 133 l58 52 252 -2 c223 -3 252 -5 262 -20 8 -14 2
-25 -39 -63 -28 -26 -108 -101 -178 -168 -202 -192 -212 -201 -397 -376 -97
-91 -236 -222 -310 -291 -193 -180 -202 -191 -185 -210 8 -9 15 -20 15 -24 0
-5 12 -23 28 -42 15 -18 40 -50 55 -71 15 -21 49 -66 75 -99 26 -34 61 -80 77
-104 17 -23 37 -50 45 -59 8 -9 35 -44 60 -76 25 -33 51 -66 58 -73 6 -8 17
-23 23 -34 6 -11 17 -27 25 -36 26 -29 117 -147 149 -191 31 -44 115 -153 159
-207 14 -18 26 -35 26 -40 0 -4 11 -19 24 -33 13 -15 49 -60 79 -101 78 -105
83 -111 111 -146 14 -17 43 -55 65 -85 51 -68 59 -78 127 -163 107 -134 112
-130 -197 -134 -261 -3 -281 0 -316 56 -18 29 -68 94 -93 123 -8 9 -26 33 -40
54 -14 20 -40 55 -57 78 -18 23 -39 51 -47 62 -9 11 -36 47 -61 80 -25 33 -53
71 -63 85 -9 14 -40 57 -69 95 -69 91 -77 102 -116 152 -17 23 -43 58 -57 78
-14 20 -33 46 -42 58 -64 81 -86 110 -108 142 -14 20 -47 64 -75 99 -27 35
-63 82 -80 105 -68 96 -139 181 -149 181 -22 -1 -67 -36 -172 -135 -17 -16
-78 -73 -135 -125 -57 -52 -121 -112 -141 -132 l-38 -37 0 -500 c0 -496 0
-500 -21 -511 -31 -17 -401 -9 -422 9 -16 12 -17 168 -17 2028 l0 2014 33 14
c45 20 399 21 416 2z m17087 -221 c18 -14 19 -34 24 -503 l5 -488 30 -6 c17
-4 300 -7 631 -8 452 -1 603 -4 612 -13 8 -8 12 -63 12 -180 0 -155 -1 -168
-19 -178 -13 -6 -226 -10 -623 -10 -332 0 -613 -3 -625 -6 l-23 -6 0 -1018 c0
-913 2 -1020 16 -1034 14 -14 84 -16 626 -16 555 0 613 -2 630 -17 16 -14 18
-34 18 -183 l0 -168 -29 -12 c-22 -9 -178 -11 -643 -8 l-613 4 -83 32 c-91 35
-125 56 -190 117 -43 39 -112 133 -112 151 0 5 -9 26 -20 47 -52 96 -53 131
-59 1150 -5 827 -8 949 -21 957 -9 6 -195 10 -454 10 -395 0 -441 2 -458 17
-16 14 -18 34 -18 173 0 110 4 161 13 172 11 15 57 17 397 20 l385 4 61 28
c54 24 63 32 84 79 24 52 25 56 30 465 5 395 6 414 24 428 29 20 363 20 392 0z
m-12981 -940 c50 -8 117 -17 150 -21 33 -4 78 -15 100 -25 22 -10 56 -21 75
-25 19 -4 46 -15 60 -25 14 -10 36 -21 50 -25 14 -4 41 -17 60 -29 109 -69
127 -81 145 -97 48 -39 183 -179 213 -220 48 -64 102 -152 102 -165 0 -6 7
-17 14 -24 8 -6 22 -35 32 -63 9 -29 21 -58 27 -65 10 -13 39 -107 62 -202 24
-98 47 -311 48 -448 l2 -134 -28 -24 -28 -24 -1014 0 -1014 0 -12 -22 c-8 -15
-9 -61 -5 -157 7 -118 12 -149 42 -235 19 -55 40 -106 48 -115 7 -9 17 -27 21
-41 10 -33 125 -170 177 -212 58 -46 140 -98 155 -98 6 0 27 -9 45 -19 18 -10
69 -27 113 -36 44 -9 98 -21 120 -25 53 -12 209 -12 260 0 22 5 76 17 120 26
44 9 94 24 110 34 17 10 41 21 55 25 51 15 138 81 233 177 53 55 97 104 97
109 0 12 72 109 81 109 4 0 12 -7 19 -15 7 -8 18 -15 25 -15 7 0 25 -10 41
-22 15 -13 42 -32 60 -43 61 -38 142 -96 154 -110 15 -18 -12 -106 -44 -147
-12 -15 -32 -43 -46 -64 -58 -85 -136 -160 -275 -261 -50 -36 -235 -125 -289
-138 -28 -8 -69 -20 -91 -28 -47 -18 -254 -37 -394 -37 -148 0 -297 18 -380
45 -40 14 -80 25 -88 25 -8 0 -31 9 -51 19 -20 11 -69 35 -108 55 -186 92
-354 251 -471 445 -43 71 -103 194 -103 210 0 9 -9 29 -20 46 -11 16 -22 50
-26 75 -4 25 -15 67 -26 94 -54 139 -61 699 -11 886 8 30 21 84 29 120 8 36
23 81 34 101 11 20 20 43 20 51 0 25 105 223 157 294 58 82 187 218 243 259
23 17 54 40 68 51 40 32 215 121 254 129 18 4 51 15 73 25 22 10 81 23 130 29
50 7 115 15 145 20 85 13 157 12 255 -3z m3315 -2 c231 -30 373 -81 550 -198
58 -38 156 -122 195 -165 16 -19 41 -47 55 -62 14 -15 35 -42 48 -61 51 -75
82 -123 82 -131 0 -4 11 -25 25 -45 14 -20 25 -44 25 -52 0 -8 10 -33 22 -55
11 -22 25 -60 30 -84 4 -24 15 -58 23 -75 9 -17 20 -67 26 -111 5 -44 16 -126
24 -181 15 -102 20 -300 9 -342 -15 -54 19 -52 -1067 -52 -880 0 -1006 -2
-1017 -15 -20 -24 -9 -308 14 -360 10 -22 24 -60 31 -83 8 -24 20 -51 28 -60
8 -10 20 -34 27 -54 6 -21 16 -38 21 -38 4 0 16 -14 24 -30 22 -42 157 -174
194 -190 17 -7 31 -16 31 -20 0 -5 17 -14 38 -20 20 -7 51 -21 67 -30 17 -10
59 -24 95 -30 36 -6 90 -18 120 -26 60 -15 212 -18 275 -5 22 5 76 17 120 26
72 15 137 42 259 107 50 27 207 182 231 228 10 19 33 54 52 77 l34 41 42 -25
c82 -48 234 -152 274 -187 2 -1 -6 -26 -17 -56 -18 -50 -56 -114 -90 -153 -8
-9 -33 -38 -55 -65 -22 -26 -61 -65 -88 -87 -26 -22 -55 -47 -65 -55 -46 -40
-142 -99 -202 -125 -19 -8 -52 -24 -72 -35 -20 -11 -44 -20 -53 -20 -9 0 -49
-11 -88 -24 -177 -60 -627 -60 -804 0 -39 13 -77 24 -84 24 -6 0 -30 9 -53 20
-23 10 -57 26 -76 35 -54 25 -159 89 -205 125 -31 25 -199 195 -218 221 -9 13
-28 38 -42 55 -31 39 -145 262 -145 283 0 9 -7 27 -16 39 -8 12 -21 50 -29 84
-7 35 -20 82 -29 105 -8 24 -22 131 -32 246 -16 191 -16 216 0 401 11 127 23
218 36 254 10 31 23 81 29 110 6 30 18 63 26 75 8 12 15 29 15 38 0 21 116
248 141 275 10 11 19 24 19 28 0 4 31 44 68 89 78 93 141 151 234 215 77 53
124 82 133 82 6 0 30 11 55 24 25 13 61 27 80 31 19 4 49 14 65 23 32 16 297
59 380 61 28 1 106 -6 175 -15z m3471 2 c46 -8 109 -17 139 -21 30 -4 64 -13
76 -20 11 -7 40 -19 65 -26 24 -7 51 -18 59 -25 8 -6 31 -19 50 -28 84 -39
255 -193 316 -285 16 -24 41 -62 56 -85 15 -22 30 -48 34 -56 3 -8 17 -37 30
-65 52 -111 105 -278 124 -395 38 -234 53 -561 31 -700 -5 -36 -15 -118 -21
-183 -6 -65 -17 -134 -25 -153 -8 -19 -19 -59 -24 -89 -6 -30 -19 -74 -31 -99
-11 -25 -20 -51 -20 -58 0 -12 -31 -73 -99 -199 -21 -39 -44 -72 -84 -119 -6
-8 -27 -32 -45 -53 -28 -35 -113 -107 -199 -173 -15 -12 -39 -25 -53 -29 -14
-4 -32 -13 -40 -20 -29 -25 -196 -74 -285 -85 -167 -19 -470 -2 -507 28 -7 5
-38 17 -69 26 -31 9 -62 23 -69 31 -7 8 -18 15 -24 15 -20 0 -128 76 -181 127
-66 63 -138 150 -159 191 -18 34 -40 42 -50 16 -3 -9 -6 -335 -6 -725 l0 -710
-25 -24 c-24 -25 -25 -25 -219 -25 -183 0 -196 1 -206 19 -16 30 -14 3903 2
3919 9 9 69 12 208 12 161 0 199 -3 218 -16 21 -15 22 -21 22 -183 0 -135 3
-171 15 -181 18 -15 29 -8 45 30 7 16 16 30 21 30 5 0 15 12 23 28 16 31 143
159 196 197 19 14 51 32 70 41 19 9 42 22 50 29 8 7 26 16 40 19 14 4 45 16
70 27 45 19 266 56 351 58 26 1 84 -5 130 -13z m3347 -82 l22 -15 0 -1197 c1
-979 3 -1200 14 -1214 12 -17 46 -18 458 -18 332 0 447 -3 456 -12 8 -8 12
-64 12 -185 0 -160 -1 -173 -19 -183 -27 -14 -2365 -14 -2392 0 -18 10 -19 23
-19 176 0 95 4 174 10 185 10 18 27 19 505 19 l495 0 5 23 c3 12 4 479 3 1037
l-3 1015 -494 3 c-345 1 -498 6 -508 13 -18 15 -19 339 -1 357 9 9 183 12 723
12 627 0 713 -2 733 -16z m6393 -2120 c8 -6 32 -17 54 -24 48 -15 105 -62 140
-114 33 -48 45 -113 45 -236 0 -203 -39 -278 -183 -352 l-62 -32 -165 0 c-164
0 -165 0 -232 32 -129 61 -188 170 -188 352 0 89 4 115 26 173 37 97 97 154
201 190 73 26 87 27 214 25 80 -2 142 -8 150 -14z"/>
<path d="M1755 5490 c-130 -20 -216 -41 -279 -70 -155 -71 -257 -172 -317
-315 l-34 -80 0 -615 0 -615 23 -49 c12 -27 22 -54 22 -60 0 -23 79 -132 127
-174 55 -49 151 -112 171 -112 7 0 31 -9 53 -20 44 -23 225 -51 334 -51 95 0
272 28 315 50 19 10 52 23 73 30 20 7 37 16 37 21 0 4 14 13 30 20 35 15 173
158 197 204 9 17 24 42 34 55 11 13 19 31 19 40 0 9 9 32 19 52 19 36 45 158
61 294 12 91 11 529 0 625 -15 127 -40 263 -54 289 -8 15 -31 61 -52 105 -27
55 -60 100 -109 151 -124 128 -210 173 -398 210 -131 25 -182 28 -272 15z"/>
<path d="M8315 5511 c-86 -6 -161 -27 -240 -68 -16 -9 -43 -23 -60 -31 -16 -9
-52 -32 -80 -53 -134 -98 -217 -214 -295 -409 -28 -71 -49 -273 -30 -295 11
-13 113 -15 785 -15 426 0 780 3 789 6 13 5 16 24 16 103 -1 53 -5 114 -10
136 -22 97 -87 250 -140 329 -41 60 -168 186 -188 186 -5 0 -21 9 -35 20 -14
12 -50 29 -79 39 -29 11 -71 26 -93 34 -48 17 -215 26 -340 18z"/>
<path d="M11602 5510 c-149 -11 -299 -84 -462 -224 -8 -7 -33 -37 -55 -66 -22
-29 -45 -57 -50 -64 -14 -15 -85 -160 -85 -173 0 -6 -10 -32 -21 -59 -28 -62
-41 -261 -18 -275 8 -5 358 -9 790 -9 671 0 778 2 789 15 21 26 2 215 -32 320
-16 50 -38 104 -48 120 -10 17 -21 41 -25 55 -4 14 -14 32 -21 40 -8 8 -36 42
-64 76 -27 33 -68 76 -92 96 -48 39 -149 98 -167 98 -7 0 -33 10 -59 21 -41
19 -207 41 -272 37 -8 -1 -57 -4 -108 -8z"/>
<path d="M14975 5493 c-16 -2 -59 -10 -95 -18 -36 -7 -83 -17 -105 -20 -22 -4
-53 -15 -70 -25 -16 -10 -40 -21 -53 -25 -27 -8 -106 -59 -148 -95 -43 -38
-89 -99 -126 -170 l-33 -64 0 -666 0 -666 33 -64 c19 -35 48 -82 66 -105 54
-71 168 -158 224 -171 15 -4 41 -15 58 -25 22 -13 79 -25 181 -38 145 -18 153
-18 292 0 96 12 153 24 174 38 18 10 43 22 57 26 94 27 261 191 315 308 8 17
19 39 24 47 5 8 22 53 37 100 l29 85 3 440 c2 361 0 449 -12 490 -52 178 -59
196 -131 314 -25 41 -133 150 -171 173 -16 10 -36 22 -44 27 -73 46 -132 64
-330 101 -45 9 -120 10 -175 3z"/>
</g>
</svg>
