<?xml version="1.0" standalone="no"?>
<!DOCTYPE svg PUBLIC "-//W3C//DTD SVG 20010904//EN"
 "http://www.w3.org/TR/2001/REC-SVG-20010904/DTD/svg10.dtd">
<svg version="1.0" xmlns="http://www.w3.org/2000/svg"
 width="3507.000000pt" height="2481.000000pt" viewBox="0 0 3507.000000 2481.000000"
 preserveAspectRatio="xMidYMid meet">
<metadata>
Created by potrace 1.16, written by Peter Selinger 2001-2019
</metadata>
<g transform="translate(0.000000,2481.000000) scale(0.100000,-0.100000)"
fill="#000000" stroke="none">
<path d="M2008 22510 c-43 -4 -94 -15 -113 -24 -20 -10 -72 -24 -117 -33 -45
-8 -106 -28 -135 -43 -29 -16 -72 -31 -95 -35 -24 -4 -56 -18 -71 -31 -16 -13
-52 -31 -82 -39 -29 -9 -59 -23 -67 -32 -7 -9 -35 -26 -63 -38 -27 -13 -59
-32 -69 -44 -11 -11 -25 -21 -32 -21 -12 0 -63 -40 -174 -135 -32 -27 -114
-115 -184 -195 -69 -80 -136 -156 -149 -170 -13 -14 -33 -40 -43 -57 -10 -18
-22 -33 -27 -33 -4 0 -18 -21 -29 -47 -11 -27 -34 -63 -49 -81 -16 -18 -29
-40 -29 -48 0 -16 -28 -76 -40 -84 -13 -9 -30 -48 -30 -68 0 -11 -14 -46 -31
-78 -17 -32 -37 -88 -45 -124 -8 -36 -26 -91 -40 -122 -24 -55 -26 -72 -35
-335 -14 -382 -5 -6632 9 -6728 6 -38 20 -91 31 -116 11 -25 28 -79 36 -119 9
-40 24 -88 35 -105 11 -18 29 -62 40 -98 11 -36 25 -69 31 -72 5 -4 23 -34 40
-68 46 -95 88 -169 103 -181 7 -6 28 -33 47 -59 64 -91 74 -103 162 -187 140
-136 215 -203 250 -225 19 -11 49 -33 68 -48 53 -44 100 -75 149 -98 25 -12
56 -32 70 -44 14 -12 43 -28 65 -35 22 -7 56 -23 75 -35 19 -13 58 -29 85 -36
28 -6 68 -22 91 -35 23 -13 81 -32 130 -43 49 -10 116 -30 149 -43 l60 -23
15445 -3 c10179 -2 15483 1 15557 7 72 7 128 17 155 30 24 11 81 26 126 35 46
9 102 27 125 40 23 13 65 29 92 35 28 7 66 23 85 36 19 12 53 28 75 35 22 7
49 21 60 31 11 10 42 27 68 39 26 12 58 32 72 45 13 14 30 25 38 25 8 0 22 10
33 21 10 12 37 33 59 47 22 14 57 39 77 56 61 51 281 273 316 318 18 24 48 63
67 88 19 25 44 64 55 88 10 23 23 42 28 42 6 0 20 26 32 57 13 32 31 67 41 78
9 11 24 43 32 72 9 29 27 71 40 95 14 24 30 69 37 101 6 32 23 82 36 112 54
116 54 137 53 3605 0 2541 -3 3203 -13 3360 -8 107 -17 204 -21 215 -4 11 -16
38 -25 60 -10 22 -24 67 -30 100 -7 33 -22 78 -35 100 -12 22 -30 63 -38 90
-8 28 -26 67 -40 88 -14 21 -28 50 -32 65 -3 15 -17 41 -31 57 -14 17 -32 45
-40 64 -8 18 -25 47 -39 65 -191 236 -232 282 -349 399 -43 42 -98 89 -122
103 -24 14 -44 30 -44 35 0 5 -17 17 -38 28 -21 11 -44 27 -52 36 -7 9 -35 25
-61 36 -26 12 -55 29 -65 40 -9 10 -40 25 -69 33 -28 9 -64 25 -79 37 -15 12
-52 28 -84 36 -31 8 -75 25 -97 38 -22 13 -77 30 -123 39 -46 8 -98 22 -115
31 -18 9 -75 20 -127 25 -114 11 -30896 11 -31012 0z m22138 -3141 c36 -40 56
-43 264 -49 198 -6 207 -7 250 -32 25 -15 64 -31 87 -38 24 -6 47 -19 53 -30
6 -11 19 -20 30 -20 21 0 90 56 90 73 0 6 25 35 56 65 51 50 59 54 90 49 19
-3 48 -17 64 -31 16 -13 44 -27 62 -31 38 -9 165 -135 174 -174 4 -14 20 -40
35 -57 46 -48 52 -82 54 -314 2 -190 4 -223 24 -285 17 -54 23 -106 28 -223 4
-108 10 -155 19 -163 18 -14 81 10 119 45 32 30 118 42 243 33 76 -6 89 -9
116 -36 17 -16 40 -32 51 -35 54 -17 152 -139 172 -213 8 -30 23 -68 34 -83
11 -15 24 -44 29 -66 5 -21 10 -230 11 -464 0 -298 4 -437 13 -465 9 -33 20
-45 64 -68 49 -27 52 -30 52 -68 0 -25 9 -54 24 -78 l25 -39 -23 -21 c-28 -26
-157 -61 -225 -61 -25 0 -77 7 -116 16 -38 10 -87 21 -108 26 -20 5 -50 22
-67 38 -16 15 -37 31 -48 34 -10 4 -28 20 -40 36 -20 27 -25 28 -48 18 l-26
-12 6 -145 c4 -81 7 -259 9 -397 l2 -250 -48 -49 c-27 -26 -83 -66 -125 -87
-68 -35 -85 -39 -147 -40 -74 0 -97 8 -189 61 -57 33 -66 45 -66 87 0 18 -8
42 -18 54 -15 19 -21 20 -43 10 -15 -7 -50 -39 -79 -72 -29 -33 -71 -69 -94
-79 -23 -11 -56 -29 -74 -41 -39 -24 -128 -28 -229 -8 -48 10 -69 10 -98 0
-55 -18 -169 -16 -197 3 -13 9 -41 29 -63 45 -24 17 -49 47 -63 77 -23 48 -23
50 -8 112 9 35 21 123 27 196 6 73 19 173 31 222 11 50 24 108 29 130 12 58
11 732 -1 777 -12 41 -8 40 -159 58 -68 8 -90 15 -110 34 -14 14 -44 32 -66
40 -49 20 -118 97 -170 191 -36 65 -39 76 -39 152 -1 69 2 85 20 105 30 33 41
73 55 193 10 93 10 107 -5 130 -9 13 -27 27 -41 31 -34 8 -298 -24 -340 -42
-53 -22 -90 -18 -114 12 -12 15 -21 37 -21 49 0 33 28 107 50 130 10 11 21 37
25 57 4 21 20 57 35 80 15 24 33 69 40 101 7 33 22 70 37 87 13 17 31 52 38
80 7 27 23 62 35 77 30 39 67 93 87 127 10 16 48 61 85 99 45 45 71 81 78 106
5 21 23 58 40 82 16 24 30 50 30 57 0 7 13 20 30 30 16 10 39 30 50 45 18 23
29 27 69 27 36 0 53 -5 67 -21z m-19239 -287 c35 -12 101 -31 148 -42 47 -11
98 -29 113 -39 15 -11 46 -25 68 -30 23 -6 53 -20 67 -31 14 -11 45 -29 68
-40 91 -43 173 -107 303 -237 131 -131 205 -221 226 -274 7 -19 23 -45 35 -59
13 -14 30 -48 39 -77 10 -28 24 -57 32 -63 7 -7 23 -42 34 -79 12 -36 29 -84
40 -106 10 -22 28 -92 39 -155 11 -63 28 -140 37 -170 23 -80 23 -530 0 -610
-9 -30 -26 -107 -37 -170 -12 -63 -31 -137 -44 -165 -13 -27 -29 -70 -35 -95
-6 -25 -22 -61 -35 -81 -13 -20 -28 -55 -35 -77 -6 -23 -21 -54 -34 -69 -13
-15 -33 -46 -45 -68 -44 -80 -119 -177 -210 -270 -67 -70 -218 -195 -234 -195
-5 0 -25 -13 -44 -30 -18 -16 -39 -30 -46 -30 -7 0 -37 -16 -66 -35 -30 -18
-68 -37 -85 -40 -17 -4 -50 -18 -74 -31 -23 -14 -86 -34 -140 -44 -53 -11
-117 -27 -142 -37 -39 -15 -80 -18 -295 -18 -217 0 -255 2 -289 17 -21 10 -83
27 -138 38 -54 11 -118 31 -141 44 -23 13 -60 29 -82 36 -22 7 -49 20 -60 30
-11 10 -36 25 -56 33 -101 41 -360 267 -418 364 -10 17 -12 17 -31 -6 -20 -23
-20 -38 -20 -1036 0 -982 -1 -1014 -19 -1036 l-19 -24 -253 0 -253 0 -23 34
-23 34 0 2429 0 2430 30 30 30 30 238 -4 c204 -3 242 -5 264 -20 l26 -17 4
-225 c3 -203 5 -227 21 -243 18 -17 19 -17 30 2 31 51 224 242 272 267 11 6
30 20 43 32 26 23 114 75 182 106 25 11 65 31 90 44 25 13 72 29 105 36 33 7
84 21 114 32 85 32 139 36 411 34 235 -2 260 -4 317 -24z m3859 0 c33 -11 102
-30 152 -41 50 -11 102 -27 115 -35 12 -9 48 -24 78 -35 63 -22 186 -85 213
-109 10 -10 35 -26 56 -37 21 -11 64 -39 94 -63 64 -49 241 -224 264 -262 9
-14 31 -43 49 -66 18 -23 33 -46 33 -52 0 -6 13 -26 29 -45 17 -18 39 -59 51
-89 11 -31 27 -61 35 -68 8 -6 21 -37 30 -68 9 -31 26 -74 37 -95 10 -21 28
-82 38 -135 10 -54 26 -117 36 -142 37 -99 34 -630 -4 -746 -11 -34 -28 -101
-37 -150 -9 -49 -25 -102 -35 -119 -10 -16 -26 -56 -35 -87 -9 -31 -25 -68
-36 -82 -11 -13 -26 -44 -35 -68 -8 -23 -23 -52 -33 -63 -10 -11 -28 -39 -40
-62 -11 -23 -27 -46 -35 -50 -7 -4 -21 -22 -29 -39 -26 -51 -282 -303 -330
-325 -15 -7 -27 -16 -27 -20 0 -5 -22 -20 -49 -34 -27 -13 -53 -30 -56 -36 -4
-6 -37 -24 -74 -41 -36 -16 -73 -35 -81 -43 -8 -7 -42 -20 -75 -30 -33 -9 -73
-25 -90 -35 -16 -10 -71 -26 -122 -34 -50 -9 -120 -26 -155 -38 -58 -21 -82
-22 -323 -23 -241 0 -265 2 -330 22 -38 12 -110 29 -160 38 -49 9 -103 25
-120 35 -16 10 -55 25 -86 34 -31 8 -68 25 -82 36 -14 11 -44 27 -67 35 -23 8
-58 28 -76 45 -19 16 -40 30 -46 30 -18 0 -150 104 -228 181 -106 105 -176
191 -221 274 -12 22 -32 52 -44 67 -13 15 -31 50 -40 77 -9 27 -23 55 -31 62
-8 6 -21 37 -30 68 -9 31 -27 79 -39 106 -13 28 -31 95 -40 149 -9 54 -24 117
-32 140 -21 60 -35 288 -28 466 5 119 12 175 30 240 13 47 29 119 35 160 6 41
21 95 34 120 13 25 31 70 40 101 8 31 22 62 30 68 8 7 22 36 32 64 9 29 27 63
39 77 13 14 33 43 44 65 50 91 97 150 221 273 84 84 163 147 220 177 21 11 46
27 56 37 24 20 191 108 207 108 7 0 39 13 72 29 33 16 97 37 143 46 46 9 99
23 118 31 64 27 146 33 429 30 257 -2 285 -4 341 -24z m4075 1 c26 -11 79 -28
119 -37 40 -10 98 -30 129 -46 31 -15 72 -36 91 -44 68 -32 213 -140 288 -216
51 -52 132 -148 132 -156 0 -5 16 -28 35 -52 18 -24 39 -60 46 -80 7 -20 21
-48 31 -63 10 -14 26 -52 34 -84 9 -33 25 -77 36 -98 19 -37 34 -144 68 -462
5 -51 10 -515 10 -1061 l0 -972 -27 -18 c-25 -17 -50 -19 -275 -19 -246 0
-246 0 -272 24 l-25 24 -4 1021 c-4 1177 -5 1193 -77 1326 -11 19 -19 44 -20
55 0 11 -8 32 -18 46 -73 109 -96 139 -134 177 -76 76 -92 89 -128 107 -19 10
-48 28 -65 41 -16 12 -59 30 -94 39 -36 9 -83 26 -105 38 -39 21 -54 22 -271
22 -228 0 -231 0 -290 -27 -33 -15 -85 -34 -116 -42 -31 -9 -62 -23 -70 -32
-7 -9 -37 -27 -66 -40 -29 -12 -53 -28 -53 -34 0 -5 -13 -18 -28 -28 -26 -15
-65 -58 -145 -157 -16 -19 -36 -54 -45 -78 -10 -23 -27 -59 -40 -79 -13 -21
-29 -73 -38 -124 -8 -48 -22 -100 -30 -115 -28 -55 -34 -258 -34 -1196 l0
-943 -24 -15 c-21 -14 -60 -16 -273 -13 -194 2 -254 6 -266 17 -16 12 -17 142
-17 1671 l0 1657 21 19 c20 18 39 19 269 19 230 0 249 -1 269 -19 20 -18 21
-30 22 -175 0 -97 5 -169 13 -190 l12 -35 31 45 c33 48 111 124 158 155 16 10
39 29 52 41 12 13 28 23 35 23 8 0 29 13 48 29 19 15 53 34 75 42 22 7 56 24
75 36 19 12 66 29 103 37 37 9 82 23 99 32 54 28 116 33 413 31 273 -2 293 -4
336 -24z m3751 -6 c43 -14 106 -31 140 -37 35 -6 81 -22 103 -34 22 -13 58
-29 80 -36 22 -7 61 -25 86 -41 25 -16 51 -29 57 -29 6 0 23 -11 39 -24 15
-13 44 -31 63 -41 48 -25 105 -73 211 -180 121 -121 135 -136 149 -164 7 -13
27 -44 46 -68 19 -25 34 -50 34 -57 0 -7 13 -30 29 -49 16 -20 33 -56 39 -80
7 -24 20 -55 32 -69 11 -14 29 -65 40 -112 11 -48 26 -97 34 -109 27 -40 40
-195 40 -474 1 -261 0 -273 -20 -300 l-21 -28 -1290 -3 -1289 -2 -28 -29 -28
-29 21 -133 c15 -92 29 -146 45 -174 13 -22 31 -63 40 -92 9 -28 24 -57 32
-64 9 -7 22 -26 31 -43 33 -64 156 -194 232 -246 21 -14 48 -35 61 -47 13 -13
31 -23 40 -23 9 0 38 -14 64 -31 27 -19 74 -37 112 -45 36 -8 86 -24 112 -36
45 -22 59 -23 277 -23 215 0 233 1 280 22 28 12 79 29 115 38 36 9 79 28 97
41 17 13 44 28 58 34 55 21 230 185 262 245 8 17 23 39 33 50 10 11 25 43 34
72 13 40 27 60 59 83 l41 30 262 0 c214 0 264 -3 273 -14 24 -29 16 -111 -16
-173 -17 -32 -33 -72 -37 -88 -4 -17 -20 -46 -36 -65 -16 -18 -32 -45 -35 -59
-19 -75 -331 -407 -432 -459 -15 -8 -41 -26 -56 -38 -16 -13 -34 -24 -41 -24
-7 0 -33 -13 -57 -30 -24 -16 -69 -37 -99 -46 -30 -9 -69 -24 -86 -35 -18 -11
-73 -26 -124 -35 -51 -9 -118 -25 -149 -36 -49 -18 -86 -21 -301 -25 -204 -4
-257 -2 -315 12 -38 9 -122 27 -185 41 -63 13 -131 33 -150 43 -19 11 -60 27
-92 36 -31 9 -61 22 -67 29 -6 7 -40 25 -76 41 -36 15 -65 31 -65 36 0 5 -18
18 -40 29 -114 58 -307 241 -421 400 -21 30 -39 60 -39 66 0 7 -15 31 -34 53
-19 23 -38 56 -41 73 -4 18 -18 47 -30 64 -13 17 -28 50 -35 75 -6 24 -22 67
-35 94 -13 28 -31 94 -40 145 -9 52 -26 124 -37 160 -38 119 -36 658 2 731 5
9 19 70 31 135 11 65 31 139 44 164 12 25 26 60 30 78 7 36 86 195 109 221 7
9 22 36 33 61 11 25 32 56 47 69 14 14 26 29 26 35 0 12 12 25 149 161 127
126 204 185 307 234 34 16 65 34 68 40 4 6 28 17 54 25 27 7 70 25 98 39 27
14 78 31 112 37 35 6 94 21 130 32 108 33 152 37 447 34 273 -2 282 -3 357
-29z m11900 16 c17 -15 18 -37 18 -275 0 -237 -1 -259 -18 -276 -16 -16 -42
-20 -164 -25 -99 -5 -166 -13 -209 -26 -35 -11 -90 -24 -122 -30 -32 -6 -70
-17 -85 -25 -15 -9 -50 -26 -77 -40 -98 -47 -202 -147 -259 -249 -14 -26 -33
-58 -40 -70 -8 -12 -22 -47 -30 -77 -8 -30 -25 -82 -37 -115 -34 -93 -38 -227
-39 -1240 0 -511 -4 -936 -9 -943 -15 -24 -84 -32 -307 -32 -209 0 -223 1
-248 21 l-26 20 0 1647 c1 1279 3 1651 13 1663 27 35 53 39 254 38 206 0 286
-8 306 -28 8 -8 14 -72 17 -196 4 -154 8 -187 22 -201 15 -15 18 -14 43 26 38
60 196 215 245 240 22 11 43 27 46 35 3 8 31 24 62 35 32 12 66 30 78 41 11
10 47 24 79 30 33 6 77 20 99 31 53 27 109 35 250 37 98 1 123 -2 138 -16z
m-9782 -48 c41 -21 78 -101 96 -208 9 -50 25 -109 36 -130 10 -21 26 -78 34
-125 8 -48 25 -112 38 -142 14 -30 29 -89 36 -130 6 -41 22 -98 35 -127 13
-29 29 -87 35 -130 7 -43 23 -100 36 -128 12 -27 28 -84 35 -125 6 -41 21
-100 34 -130 13 -30 30 -95 40 -144 9 -49 25 -106 35 -126 10 -20 26 -79 35
-130 9 -51 25 -110 36 -132 11 -21 26 -77 34 -124 9 -47 25 -107 36 -132 12
-26 28 -85 36 -132 8 -47 25 -107 38 -135 12 -27 28 -87 35 -132 7 -45 18 -90
24 -98 10 -14 16 -12 49 17 34 30 40 41 56 123 10 50 25 105 35 123 9 18 26
73 36 122 10 49 28 106 39 128 11 21 25 70 32 108 6 38 24 98 39 134 15 36 31
90 34 120 4 30 18 79 32 108 14 30 32 90 41 134 8 45 23 98 34 118 11 20 26
72 34 116 9 43 25 96 36 118 11 21 27 75 35 119 9 44 24 98 35 120 11 21 27
73 35 115 8 43 25 102 38 132 14 30 30 87 37 125 6 39 21 88 32 110 11 22 28
79 38 127 10 48 27 105 38 126 11 21 25 67 31 103 6 35 18 74 25 86 24 37 103
46 357 41 262 -4 260 -3 278 -96 5 -28 19 -73 30 -98 12 -25 28 -83 37 -128 8
-44 24 -98 34 -118 11 -21 28 -80 38 -130 10 -51 28 -111 39 -133 12 -22 26
-71 32 -110 6 -38 22 -95 35 -125 13 -30 31 -93 39 -139 9 -46 23 -95 32 -108
9 -14 24 -67 35 -119 10 -52 27 -111 38 -132 10 -20 26 -77 36 -127 9 -49 25
-103 35 -120 10 -16 26 -70 35 -120 10 -49 26 -107 36 -127 11 -21 28 -80 38
-132 11 -52 27 -105 36 -119 9 -14 23 -62 30 -106 8 -44 26 -107 39 -139 14
-32 30 -90 37 -128 18 -105 23 -114 63 -114 19 0 38 4 41 10 3 5 14 54 25 109
10 55 28 119 38 143 11 23 27 84 36 135 9 51 25 109 35 130 11 21 27 80 35
131 9 51 25 110 36 131 10 21 26 80 35 131 9 51 25 110 35 131 11 21 27 80 36
131 9 51 25 113 36 136 10 24 26 82 34 130 9 47 26 112 40 144 13 31 28 89 34
128 6 39 21 97 35 130 13 32 30 91 36 132 6 40 21 98 34 128 13 30 30 93 38
140 8 47 24 106 35 131 12 25 26 77 32 115 16 102 27 128 63 149 29 18 51 20
264 20 l231 0 26 -25 c16 -15 24 -30 20 -40 -3 -8 -12 -47 -19 -87 -8 -39 -24
-90 -36 -112 -12 -23 -28 -74 -35 -113 -7 -39 -23 -89 -34 -111 -12 -22 -28
-74 -36 -116 -9 -42 -24 -91 -35 -109 -11 -18 -28 -73 -39 -122 -10 -49 -26
-100 -35 -113 -8 -13 -23 -62 -34 -108 -10 -46 -27 -102 -39 -125 -11 -22 -26
-69 -32 -105 -6 -35 -22 -87 -36 -116 -13 -29 -30 -85 -38 -126 -8 -40 -24
-89 -35 -108 -11 -19 -27 -70 -35 -113 -9 -43 -24 -92 -35 -109 -10 -18 -27
-70 -36 -116 -9 -46 -27 -103 -40 -126 -12 -24 -28 -74 -34 -111 -7 -37 -21
-85 -32 -107 -11 -21 -27 -71 -35 -111 -8 -39 -24 -89 -35 -110 -11 -22 -29
-79 -39 -127 -11 -49 -26 -100 -35 -113 -9 -14 -25 -64 -36 -112 -10 -48 -26
-98 -34 -111 -9 -13 -25 -64 -35 -113 -11 -49 -29 -104 -39 -122 -11 -18 -23
-50 -26 -71 -5 -22 -17 -45 -32 -57 -24 -19 -42 -20 -272 -20 -140 0 -262 5
-284 11 -47 13 -62 37 -77 124 -6 38 -20 84 -31 102 -11 17 -27 69 -36 115 -8
46 -26 104 -39 129 -13 26 -28 77 -34 114 -6 37 -21 88 -34 114 -13 25 -31 83
-39 129 -9 46 -25 98 -36 115 -11 18 -25 64 -31 102 -7 39 -23 93 -36 122 -13
29 -31 86 -38 127 -8 41 -24 93 -35 115 -12 22 -28 75 -36 117 -8 43 -24 95
-36 118 -11 22 -27 74 -35 115 -8 42 -24 94 -35 115 -11 22 -27 74 -35 115 -8
42 -24 94 -35 115 -11 22 -27 74 -35 115 -8 41 -25 99 -39 129 -13 29 -29 81
-35 115 -14 80 -19 97 -30 97 -20 0 -82 -139 -101 -224 -10 -49 -26 -100 -35
-113 -8 -13 -24 -65 -35 -114 -11 -50 -28 -107 -38 -127 -10 -21 -26 -73 -35
-117 -9 -44 -26 -97 -37 -119 -11 -21 -27 -75 -35 -120 -9 -44 -24 -94 -34
-111 -10 -16 -26 -67 -35 -113 -9 -46 -27 -106 -40 -135 -13 -29 -29 -81 -35
-116 -6 -36 -20 -82 -31 -104 -11 -21 -29 -78 -39 -127 -11 -49 -26 -100 -35
-113 -8 -13 -24 -66 -35 -117 -11 -51 -27 -104 -36 -117 -8 -13 -24 -65 -35
-114 -11 -50 -29 -108 -39 -130 -11 -21 -27 -71 -34 -111 -17 -87 -68 -203
-95 -218 -12 -6 -117 -10 -273 -10 -236 0 -255 1 -286 20 -38 24 -56 59 -72
149 -6 36 -22 86 -35 111 -13 25 -29 75 -35 111 -6 35 -22 85 -35 110 -13 25
-29 75 -35 110 -6 35 -22 89 -36 119 -13 30 -30 87 -39 126 -8 39 -23 87 -34
105 -10 19 -26 68 -35 110 -8 42 -24 94 -35 115 -11 22 -27 73 -36 114 -9 41
-25 92 -36 114 -11 21 -27 73 -35 115 -9 42 -24 91 -35 109 -11 18 -28 73 -39
122 -10 49 -26 100 -35 113 -8 13 -24 63 -34 111 -11 48 -27 98 -36 112 -9 14
-25 65 -35 114 -11 49 -29 104 -39 122 -11 18 -25 62 -31 98 -6 36 -22 88 -35
116 -13 28 -31 83 -39 121 -8 39 -24 89 -35 111 -11 22 -28 75 -37 119 -8 43
-24 92 -35 109 -10 17 -25 65 -33 107 -8 42 -26 100 -40 130 -30 63 -33 98 -8
120 23 21 53 24 295 25 168 2 214 -1 237 -13z m10706 -20 c13 -17 35 -44 49
-62 14 -17 34 -52 45 -77 12 -25 27 -49 34 -53 7 -4 23 -27 35 -50 11 -23 25
-45 31 -48 6 -4 24 -33 40 -66 17 -32 34 -59 39 -59 5 0 14 -14 21 -30 7 -17
26 -47 42 -68 17 -20 36 -52 44 -71 8 -19 21 -39 28 -45 8 -6 27 -33 41 -61
15 -27 36 -59 46 -71 11 -11 19 -25 19 -32 0 -6 13 -26 29 -44 15 -18 39 -53
51 -78 13 -25 31 -56 42 -70 36 -47 67 -95 93 -143 14 -27 30 -47 34 -45 18 7
87 96 105 136 10 23 23 42 28 42 5 0 19 21 30 48 12 26 34 63 49 82 16 19 29
40 29 47 0 7 13 27 28 45 16 18 35 49 42 68 7 19 26 50 42 68 15 18 28 39 28
47 0 7 11 26 24 42 13 15 35 51 49 80 15 28 32 55 38 58 6 4 19 28 30 53 11
25 33 60 49 79 17 18 30 40 30 48 0 7 11 26 24 42 13 15 35 51 49 78 14 28 44
70 65 95 l40 45 255 0 c237 0 256 -1 276 -19 33 -30 26 -67 -25 -129 -13 -15
-31 -43 -40 -62 -9 -19 -20 -35 -25 -35 -5 0 -22 -26 -39 -57 -32 -59 -61
-106 -102 -158 -13 -16 -30 -45 -39 -65 -9 -19 -24 -41 -33 -49 -10 -8 -28
-36 -42 -62 -13 -26 -28 -50 -34 -54 -6 -4 -21 -28 -34 -54 -14 -26 -32 -53
-41 -61 -9 -7 -22 -27 -29 -45 -7 -17 -20 -38 -29 -46 -8 -9 -27 -38 -41 -67
-14 -28 -32 -55 -40 -59 -7 -4 -23 -27 -35 -50 -11 -23 -25 -45 -31 -48 -6 -3
-20 -25 -31 -48 -12 -23 -35 -57 -50 -75 -16 -18 -29 -38 -29 -45 0 -7 -17
-35 -37 -64 -21 -28 -47 -65 -58 -83 -33 -55 -79 -126 -99 -154 -30 -42 -36
-99 -16 -144 10 -22 23 -43 29 -46 6 -4 21 -26 32 -49 12 -23 35 -57 50 -75
16 -18 29 -39 29 -47 0 -8 14 -30 30 -48 17 -19 30 -39 30 -45 0 -6 16 -32 36
-58 20 -26 42 -62 50 -79 7 -17 20 -38 29 -45 9 -8 26 -32 37 -54 11 -23 29
-50 39 -61 10 -11 25 -36 33 -55 8 -20 23 -43 33 -53 11 -9 30 -40 43 -67 13
-28 27 -50 32 -50 4 0 19 -22 32 -48 13 -27 31 -53 38 -60 8 -6 25 -34 38 -62
13 -27 27 -50 32 -50 4 0 17 -19 29 -42 12 -24 33 -56 46 -72 14 -16 31 -47
40 -68 8 -21 19 -38 24 -38 5 0 18 -19 30 -42 12 -24 35 -59 50 -78 16 -19 29
-40 29 -47 0 -7 13 -27 29 -45 15 -18 38 -53 51 -77 l22 -44 -21 -21 c-21 -20
-32 -21 -289 -24 -320 -3 -332 -1 -377 74 -37 62 -64 106 -90 146 -42 65 -81
126 -100 157 -11 18 -30 47 -42 65 -12 17 -33 52 -47 77 -13 25 -32 51 -41 59
-9 7 -23 29 -30 47 -8 19 -28 51 -45 71 -16 20 -30 42 -30 49 0 7 -13 28 -30
46 -16 19 -38 55 -49 80 -11 26 -24 47 -30 47 -5 0 -17 17 -26 38 -10 20 -28
48 -41 62 -12 14 -30 43 -40 65 -9 22 -26 49 -38 61 -11 12 -30 34 -40 49
l-19 28 -19 -23 c-10 -12 -18 -28 -18 -35 0 -7 -7 -18 -16 -26 -9 -7 -28 -38
-44 -69 -16 -31 -36 -62 -44 -69 -9 -8 -25 -34 -36 -58 -11 -25 -31 -58 -45
-75 -14 -16 -25 -36 -25 -43 0 -7 -11 -26 -24 -42 -13 -15 -33 -48 -46 -73
-12 -25 -28 -48 -35 -52 -7 -4 -18 -22 -25 -40 -8 -18 -28 -54 -47 -79 -18
-26 -33 -52 -33 -57 0 -6 -13 -26 -28 -44 -16 -18 -34 -48 -42 -67 -7 -18 -24
-46 -37 -61 -13 -16 -30 -44 -38 -63 -8 -20 -19 -39 -25 -42 -6 -4 -24 -32
-40 -63 -16 -31 -46 -76 -68 -99 l-40 -43 -254 0 c-244 0 -256 1 -282 21 -31
25 -29 45 13 99 16 19 35 49 44 66 9 17 23 37 32 44 9 7 22 28 29 45 8 17 29
52 47 77 33 43 43 59 99 153 14 23 36 55 48 71 13 16 30 44 37 62 8 17 19 32
25 32 6 0 18 17 27 38 8 20 28 55 44 77 52 71 78 109 100 150 12 22 35 55 50
73 16 18 29 39 29 47 0 8 13 29 29 47 15 18 38 51 49 74 11 22 28 46 36 53 9
8 25 33 36 57 10 24 23 44 27 44 4 0 21 25 37 55 16 30 32 55 37 55 5 0 17 17
26 38 10 20 26 47 36 59 11 12 33 50 51 85 l31 63 -28 55 c-16 30 -37 64 -47
75 -11 11 -26 36 -34 56 -8 20 -22 42 -31 49 -9 8 -26 32 -37 54 -11 23 -29
50 -39 61 -10 11 -25 36 -33 56 -8 20 -22 42 -31 49 -9 8 -26 32 -37 54 -12
23 -34 57 -49 76 -16 19 -29 40 -29 47 0 7 -13 27 -29 45 -15 18 -36 49 -46
68 -10 19 -28 48 -41 63 -13 16 -24 35 -24 42 0 7 -12 28 -27 46 -16 18 -39
51 -53 74 -46 77 -65 107 -87 139 -12 17 -34 52 -47 78 -14 26 -30 49 -36 53
-6 3 -20 25 -31 48 -12 23 -35 57 -50 75 -16 18 -29 39 -29 47 0 8 -13 29 -29
47 -15 18 -36 49 -46 68 -10 19 -28 48 -41 63 -25 30 -30 62 -15 86 15 24 91
30 354 28 l249 -2 24 -30z m2972 -2625 c67 -15 150 -80 203 -158 35 -54 43
-75 52 -144 14 -101 -1 -218 -32 -257 -12 -14 -25 -35 -30 -46 -20 -46 -107
-111 -187 -140 -103 -38 -155 -37 -261 4 -68 27 -94 44 -142 93 -53 53 -63 70
-91 152 -16 50 -30 106 -30 124 0 18 14 72 31 120 24 71 40 97 78 137 74 76
116 105 163 114 62 13 189 13 246 1z"/>
<path d="M25023 19232 c-9 -15 -30 -41 -45 -58 -27 -29 -30 -41 -39 -140 -10
-108 -24 -164 -40 -164 -13 0 -39 56 -39 86 0 60 -22 101 -81 153 -49 43 -68
53 -116 62 -32 5 -84 19 -116 30 -68 23 -146 24 -213 4 -27 -8 -87 -22 -134
-31 -61 -11 -92 -23 -110 -39 -14 -13 -43 -31 -65 -41 -58 -24 -98 -58 -249
-215 -14 -15 -35 -48 -46 -75 -12 -26 -29 -54 -40 -61 -10 -7 -26 -39 -35 -71
-9 -31 -23 -64 -32 -74 -8 -9 -21 -42 -29 -75 -9 -32 -27 -74 -40 -94 -14 -20
-32 -61 -39 -90 -14 -50 -13 -55 3 -67 23 -18 79 -8 138 23 26 14 59 25 74 25
41 0 91 20 127 51 17 15 45 30 62 34 38 8 208 176 218 214 12 52 34 81 76 100
36 17 44 18 56 6 13 -13 13 -17 -1 -32 -9 -10 -26 -43 -38 -75 -11 -31 -28
-62 -36 -69 -9 -7 -24 -29 -34 -49 -10 -20 -30 -44 -44 -54 -14 -9 -26 -23
-26 -32 0 -8 -16 -22 -35 -30 -38 -16 -43 -25 -20 -44 19 -15 72 1 91 29 8 11
37 24 66 31 29 7 73 25 97 41 25 16 50 29 56 29 7 0 29 13 49 29 21 17 53 35
72 41 19 6 39 20 44 31 6 10 27 28 48 39 47 26 143 101 224 174 33 30 86 56
112 56 9 0 22 -13 31 -30 14 -28 14 -31 -4 -47 -63 -59 -204 -163 -219 -163
-6 0 -23 -16 -37 -35 -15 -19 -37 -37 -48 -41 -12 -4 -35 -18 -52 -31 -53 -43
-99 -72 -154 -99 -30 -14 -68 -36 -83 -49 -16 -14 -48 -29 -70 -36 -23 -6 -62
-21 -87 -34 -25 -13 -67 -26 -92 -29 -70 -10 -79 -27 -89 -153 -5 -59 -15
-126 -24 -148 -8 -22 -16 -51 -16 -65 0 -14 -7 -42 -14 -63 -17 -47 -10 -76
21 -88 22 -8 25 -14 20 -52 -2 -23 -10 -57 -18 -76 -13 -31 -12 -35 5 -45 10
-6 36 -25 57 -43 57 -46 131 -61 198 -38 28 9 51 21 51 26 0 5 16 27 36 48 19
22 40 56 45 75 5 19 18 44 28 57 l18 22 21 -23 c30 -32 29 -94 -1 -139 -33
-52 -56 -95 -57 -108 -1 -33 185 -29 260 4 25 11 69 26 98 33 29 7 66 23 81
36 15 13 47 28 71 33 24 5 47 17 52 25 5 9 16 22 24 29 43 34 124 116 124 125
0 5 13 26 29 46 17 21 34 60 41 89 19 90 49 117 85 77 15 -16 16 -30 10 -87
-7 -67 -27 -123 -44 -123 -5 0 -18 -20 -30 -45 -31 -67 -156 -182 -241 -223
-14 -7 -39 -23 -57 -36 -18 -13 -54 -26 -84 -30 -30 -4 -65 -17 -83 -31 -34
-26 -82 -40 -169 -50 -74 -8 -80 -21 -80 -177 l0 -116 43 -86 c23 -47 50 -88
60 -91 9 -3 27 -16 40 -30 l23 -24 25 19 c13 11 33 20 43 20 37 0 42 -33 36
-269 -4 -184 -9 -240 -26 -301 -11 -41 -25 -136 -31 -210 -6 -74 -13 -144 -15
-156 -5 -21 11 -39 70 -80 60 -42 88 -40 182 8 70 35 89 49 100 76 12 29 12
89 4 380 -10 335 -8 392 18 440 15 28 17 28 57 -8 l34 -30 52 20 c28 11 55 24
58 30 4 6 28 21 53 33 46 23 144 123 172 177 19 36 29 37 49 8 25 -35 20 -94
-8 -123 -14 -14 -33 -38 -42 -55 -10 -16 -22 -30 -26 -30 -27 0 -36 -66 -47
-350 -9 -222 -17 -315 -31 -375 -34 -141 -34 -140 34 -188 48 -35 66 -42 102
-41 25 0 52 8 62 17 9 8 37 24 62 35 53 23 110 83 110 115 -2 87 -22 298 -36
377 -14 74 -18 154 -18 355 -1 257 -1 261 26 335 41 116 53 238 34 329 -10 49
-24 83 -40 100 -13 14 -29 36 -35 48 -6 13 -29 32 -51 43 -21 11 -43 26 -47
33 -20 34 -127 53 -156 29 -8 -7 -18 -39 -22 -71 -6 -54 -12 -72 -43 -126 -6
-11 -18 -46 -27 -77 -15 -57 -38 -89 -84 -121 -23 -15 -26 -15 -42 -1 -22 20
-15 80 13 111 12 12 26 52 34 93 7 39 22 83 33 99 11 15 27 60 37 100 9 40 25
92 35 115 10 24 23 85 29 137 6 52 24 143 41 204 27 96 31 121 27 205 -2 52
-7 100 -11 106 -5 8 -17 7 -44 -6 -37 -17 -119 -18 -108 -1 2 4 9 38 15 75 13
84 5 99 -46 84 -41 -11 -78 7 -90 44 -4 13 -17 35 -30 50 -15 18 -25 48 -30
85 -4 32 -13 75 -20 97 -18 50 -18 144 0 187 7 19 17 59 20 89 4 30 14 65 22
78 13 20 21 23 53 17 34 -6 39 -4 44 16 10 39 -23 59 -116 72 -33 5 -39 2 -54
-21z m-31 -868 c40 -48 49 -54 87 -54 47 0 69 -21 45 -41 -9 -8 -27 -31 -40
-51 -19 -30 -34 -40 -69 -49 -25 -6 -47 -15 -50 -19 -2 -4 -9 -55 -14 -114
-11 -116 -18 -135 -64 -183 -51 -55 -175 -68 -259 -29 -28 13 -41 30 -58 69
-13 29 -31 63 -41 76 -22 28 -26 133 -6 167 6 12 24 44 39 71 18 33 44 61 74
82 47 30 48 31 162 28 l114 -2 25 33 c29 36 37 39 55 16z"/>
<path d="M24726 18122 c-14 -22 -30 -43 -36 -47 -21 -13 -1 -74 33 -105 l31
-28 43 30 c37 25 43 34 43 63 0 27 -9 45 -44 81 l-44 46 -26 -40z"/>
<path d="M25155 19010 c-14 -15 -18 -37 -19 -93 -2 -120 15 -276 31 -289 19
-16 42 8 54 58 10 45 1 301 -13 327 -12 23 -31 22 -53 -3z"/>
<path d="M25780 18078 c-90 -13 -182 -55 -236 -105 -44 -41 -50 -51 -43 -70 5
-13 14 -23 21 -23 28 0 114 31 140 50 68 50 190 50 253 0 20 -16 45 -32 56
-35 11 -4 27 -21 35 -38 9 -18 27 -42 39 -54 39 -40 45 -87 46 -354 1 -305 6
-361 37 -386 17 -13 26 -37 35 -85 11 -70 21 -85 29 -45 10 45 8 733 -1 767
-25 90 -72 205 -94 229 -13 14 -31 38 -41 54 -21 34 -125 87 -186 96 -25 3
-65 3 -90 -1z"/>
<path d="M25710 17834 c-25 -7 -57 -13 -72 -13 -18 -1 -45 -18 -83 -55 -59
-57 -59 -63 -3 -85 48 -18 142 -94 188 -150 36 -45 47 -70 61 -131 9 -41 22
-96 29 -121 12 -40 11 -51 -4 -90 -35 -85 -31 -339 5 -339 5 0 18 -19 30 -42
29 -56 78 -116 101 -123 10 -4 32 -18 48 -32 25 -20 44 -26 108 -30 103 -7
116 6 69 68 -19 24 -42 60 -52 79 -10 19 -26 46 -36 60 -10 14 -22 58 -28 99
-7 52 -16 79 -30 92 -36 34 -42 85 -48 394 l-5 300 -34 52 c-30 45 -41 54 -88
67 -62 18 -93 18 -156 0z"/>
<path d="M24456 16732 c-2 -4 -9 -84 -15 -177 -11 -171 -18 -222 -45 -349 -8
-38 -18 -133 -22 -210 -7 -158 -6 -162 66 -204 51 -29 75 -17 83 42 4 26 14
60 22 77 12 23 19 85 26 247 5 119 16 262 24 316 19 124 10 164 -43 203 -20
15 -43 36 -50 45 -14 19 -37 24 -46 10z"/>
<path d="M25240 16589 c-12 -22 -8 -244 7 -364 10 -90 23 -16 30 179 5 158 4
183 -10 194 -13 11 -17 10 -27 -9z"/>
<path d="M4243 18586 c-34 -8 -71 -19 -82 -25 -11 -7 -55 -20 -97 -31 -42 -10
-83 -25 -93 -34 -9 -8 -41 -26 -71 -39 -30 -14 -64 -34 -74 -46 -11 -11 -24
-21 -30 -21 -23 0 -256 -239 -256 -263 0 -8 -11 -24 -24 -36 -13 -12 -32 -44
-42 -69 -9 -26 -28 -63 -40 -82 -13 -19 -30 -66 -38 -103 -9 -37 -22 -80 -30
-95 -27 -52 -37 -153 -37 -377 0 -234 10 -323 42 -387 11 -21 22 -57 25 -80 3
-24 14 -59 25 -78 10 -19 31 -63 48 -96 16 -34 35 -65 41 -69 7 -4 20 -25 29
-46 10 -21 30 -51 45 -66 15 -15 53 -55 85 -88 80 -82 128 -125 142 -125 6 0
28 -14 49 -30 21 -17 58 -37 81 -45 24 -9 50 -21 59 -29 22 -19 66 -33 145
-47 39 -6 88 -19 110 -28 50 -20 337 -23 371 -4 11 6 67 21 124 33 66 13 118
29 140 44 19 13 53 29 75 36 22 7 51 23 65 35 14 13 39 30 55 38 69 35 243
225 300 326 11 20 30 52 42 71 12 19 25 48 29 65 3 16 19 57 34 90 29 61 46
157 72 405 10 96 9 123 -17 310 -20 150 -33 217 -50 250 -12 25 -30 70 -40
100 -10 30 -25 64 -35 75 -10 11 -30 44 -44 73 -15 28 -30 52 -34 52 -4 0 -16
15 -26 33 -19 31 -47 65 -95 109 -13 13 -36 34 -50 48 -14 14 -47 38 -72 52
-25 15 -51 34 -58 42 -7 8 -29 20 -49 27 -20 7 -49 21 -63 32 -15 10 -64 29
-110 42 -46 13 -104 31 -129 40 -62 24 -357 31 -447 11z"/>
<path d="M8199 18590 c-26 -4 -80 -19 -120 -33 -41 -14 -91 -29 -112 -32 -21
-4 -54 -18 -74 -32 -20 -13 -54 -32 -77 -40 -22 -9 -51 -27 -63 -40 -12 -13
-27 -23 -33 -23 -12 0 -165 -154 -211 -212 -15 -18 -33 -49 -42 -68 -8 -19
-24 -46 -36 -59 -12 -14 -24 -36 -27 -50 -4 -14 -21 -60 -39 -101 -22 -48 -38
-105 -45 -160 -6 -47 -18 -119 -27 -160 -23 -113 -21 -310 4 -455 12 -66 27
-150 33 -187 6 -37 19 -83 30 -101 11 -19 27 -57 35 -84 8 -28 23 -61 34 -74
10 -13 28 -43 40 -66 11 -23 31 -53 43 -67 13 -13 46 -52 73 -85 28 -34 58
-64 68 -67 9 -3 22 -14 27 -25 6 -10 28 -28 49 -38 20 -11 43 -26 50 -35 7 -8
37 -24 67 -36 30 -11 67 -29 82 -40 15 -11 72 -29 131 -40 58 -12 114 -27 125
-33 35 -19 320 -16 381 5 28 9 88 24 135 33 48 10 100 27 120 40 19 12 53 28
75 35 22 7 51 23 65 35 14 13 40 31 59 40 75 38 239 211 290 305 7 14 22 34
32 45 10 12 27 45 38 75 10 30 28 74 40 97 13 23 29 84 37 139 8 54 22 123 31
154 24 77 23 371 0 450 -9 30 -23 99 -32 154 -10 62 -24 113 -39 140 -14 22
-29 60 -35 83 -7 23 -23 55 -36 72 -14 16 -31 42 -38 58 -24 57 -199 248 -253
276 -17 9 -37 23 -44 32 -8 10 -39 28 -69 41 -31 14 -62 31 -71 39 -8 8 -56
25 -105 38 -50 14 -110 33 -135 42 -35 14 -83 19 -215 21 -93 2 -191 -1 -216
-6z"/>
<path d="M16055 18600 c-105 -5 -140 -11 -180 -29 -27 -12 -79 -32 -115 -43
-36 -11 -72 -26 -81 -34 -9 -8 -35 -25 -57 -37 -64 -35 -120 -78 -177 -137
-96 -98 -117 -124 -132 -160 -8 -19 -25 -46 -37 -60 -13 -14 -28 -45 -35 -70
-7 -24 -24 -66 -38 -92 -18 -34 -30 -84 -42 -172 l-17 -125 23 -10 c17 -8 334
-11 1027 -11 887 0 1005 2 1016 15 17 21 8 155 -15 215 -9 25 -25 78 -35 119
-10 40 -27 85 -37 100 -11 14 -30 46 -41 71 -12 25 -38 65 -57 90 -44 55 -136
150 -146 150 -4 0 -25 15 -47 33 -22 19 -55 40 -73 47 -19 8 -46 24 -61 36
-15 12 -50 27 -78 33 -28 6 -78 23 -112 37 -60 25 -86 29 -268 37 -30 1 -113
0 -185 -3z"/>
</g>
</svg>
